<svg xmlns="http://www.w3.org/2000/svg" xmlns:xlink="http://www.w3.org/1999/xlink" width="150.506" height="78.985" viewBox="0 0 150.506 78.985">
  <defs>
    <clipPath id="clip-path">
      <rect id="Rectangle_154" data-name="Rectangle 154" width="150.506" height="78.985" transform="translate(0 0)" fill="#e7e7e7"/>
    </clipPath>
  </defs>
  <g id="icon" clip-path="url(#clip-path)">
    <path id="Path_985" data-name="Path 985" d="M20.119,5.761A115.191,115.191,0,0,1,50.7,0c-.858,1.716-1.648,3.475-2.4,5.251-3.084.476-7.613-.425-9.108,3.135A36.976,36.976,0,0,0,36.772,21.76c.595,2.354,3.416,1.147,5.038.739,1.24-5.064,1.674-10.272,2.388-15.421,1.274-.093,2.54-.178,3.815-.255-2.464,11.36-2.838,23-3.772,34.538a68.56,68.56,0,0,1-32.168,2.812c2.855-9.346,5.183-19.168,10.943-27.257a61,61,0,0,1,9.066-10.17c-5.837,1.02-12.906,1.665-16.466,7.112-5.565,8.556-6.5,19-7.859,28.854-2.413-2.778-1.7-6.653-1.572-10.026.7-6.636,1.793-13.382,4.665-19.465-.263-.6-.527-1.207-.8-1.8-3.484.425-4.325,3.823-4.418,6.738-.425,2.753-.365,5.591-1.223,8.267A2.429,2.429,0,0,1,.2,26.671,21.978,21.978,0,0,1,2.777,12.728c1.47-2.685,5.038-1.81,7.528-2.371.365.561.731,1.13,1.1,1.7,1.173-3.857,5.4-4.97,8.717-6.3M18.547,39.738c2.167-1.376,3.178-3.832,4.223-6.058,1.81-4.214,3.305-8.564,4.69-12.94-4.741,5.183-8.59,11.844-8.913,19" transform="translate(0 0)" fill="#e7e7e7"/>
    <path id="Path_986" data-name="Path 986" d="M62.676,1.491c1.4-1.249,3.246-.467,4.784.017,24.563,8.259,49.229,16.517,72.654,27.69-.263,4.01.85,8.845-1.954,12.158-3.237,2.056-7.129.034-10.544-.5a48.831,48.831,0,0,0-.858-8.547,63.45,63.45,0,0,0-.085,8.335c-4.444-1.274-8.964-2.286-13.458-3.382a52.08,52.08,0,0,0-.833-8.675,56.382,56.382,0,0,0-.1,8.471c-5.3-1.334-10.663-2.4-15.965-3.721a56.939,56.939,0,0,0-.425-9.4,59.1,59.1,0,0,0-.314,9.338c-5.659-1.257-11.351-2.362-17.019-3.577-.017-6.007.076-12.023-.365-18.021-.2,0-.612-.008-.816-.017-.357,5.982-.229,11.972-.221,17.962-7.749,1.173-14.546,5.4-20.765,9.932.595-9.941,1.385-19.89,2.948-29.738C59.9,6.9,60.348,3.59,62.676,1.491" transform="translate(-8.478 -0.123)" fill="#e7e7e7"/>
    <path id="Path_987" data-name="Path 987" d="M135.147,63.509c.357-9.61-.365-19.245.331-28.829,5.642,1.062,10.6,4.3,15.9,6.415-4.928-.612-9.559-2.54-14.325-3.849.076,2.32.127,4.648.161,6.967q7.048,2.256,14.172,4.316c-4.758.246-9.431-.875-14.155-1.223.017,5.523.408,11.028.391,16.551,4.631.246,9.3.212,13.875,1a7.705,7.705,0,0,1-2.914.688c-7.383.323-14.75,1.011-22.15.841-.4.612-1.2,1.818-1.6,2.422,5.429.1,10.926-.807,16.3.229a13.586,13.586,0,0,1-5.37.867Q75.845,71.474,15.949,73.288c-1.818.017-3.73.314-5.438-.5.289-1.725,2.277-1.971,3.687-1.971,3.594-.068,7.2-.212,10.791-.034a17.2,17.2,0,0,1-2.906-3.866c-3.917-.2-8.259.875-11.768-1.376-1.7-.909-2.693-2.625-3.747-4.163,12.49-.34,25-.306,37.487-.493,1.529,1.444,3.033,3.042,5.064,3.772,2.829.671,5.761.484,8.641.476-.212-5.217,1.98-11.173,7.315-12.966,7-2.388,14.011,4.877,13.289,11.776,12.711-.008,25.43-.051,38.141.085.552-2.192,1.2-5.259,3.985-5.455,3.305-.969,5.489,2.277,5.812,5.14,2.948-.11,5.9-.161,8.845-.2M66.4,56.176c-5.344,1.895-5.871,10.306-.918,12.966,3.433,2.15,8-.425,8.836-4.155,1.725-4.622-2.855-10.723-7.919-8.811m55.72,11.292a4.118,4.118,0,0,0,.042-7.349,4.246,4.246,0,0,0-.042,7.349M108,66.482l-1.631,2.7c2.889-.11,5.786-.161,8.675-.144-.654-.85-1.291-1.7-1.92-2.566-1.708.017-3.416.025-5.123.008m-77.522.5c1.181,1.207,2.235,3.033,4.155,2.974,2.345.323,4.112-1.444,5.642-2.931-3.263-.136-6.534-.11-9.8-.042M39.612,70.4c5.769-.034,11.53-.229,17.3-.4-.756-1.011-1.487-2.039-2.209-3.067-4.469,0-8.938.034-13.407-.017-.544,1.173-1.1,2.328-1.682,3.484m37.053-3.637q-1.083,1.517-2.209,3.008c7.273-.144,14.538-.323,21.811-.365-.637-.943-1.249-1.886-1.861-2.829-5.914.119-11.827-.017-17.741.187" transform="translate(-0.988 -5.214)" fill="#e7e7e7"/>
    <path id="Path_988" data-name="Path 988" d="M70.859,45.349a12.978,12.978,0,0,1,11.615-3.373c18.14,3.492,36.221,7.29,54.327,10.927a30.231,30.231,0,0,1,4.189,1.3,27.924,27.924,0,0,1-5.888-.416c-21.394-2.957-42.89-5.217-64.242-8.437" transform="translate(-10.654 -6.265)" fill="#e7e7e7"/>
    <path id="Path_989" data-name="Path 989" d="M83.729,51.13c15,1.895,30.01,3.849,45.014,5.761a110.925,110.925,0,0,1,13.679,2.158c-17.392-.909-34.751-2.651-52.135-3.823-2.88.212-4.614-2.43-6.559-4.1" transform="translate(-12.589 -7.687)" fill="#e7e7e7"/>
    <path id="Path_990" data-name="Path 990" d="M6.326,53.558c3.424.688,7.46,1.4,9.3,4.767,5.948.246,11.9.246,17.851.051,1.444-4.936,7.6-4.588,11.657-5.565a33.974,33.974,0,0,1-.144,7.137c-12.838.059-25.685.136-38.523-.034-.144-2.116-.178-4.24-.136-6.355" transform="translate(-0.949 -7.94)" fill="#e7e7e7"/>
    <path id="Path_991" data-name="Path 991" d="M91.209,59.83c13.144,1.054,26.314,1.742,39.449,2.923a4.307,4.307,0,0,1-3.39,1.181c-11.615-.017-23.229-.025-34.836-.085q-.6-2.014-1.224-4.019" transform="translate(-13.713 -8.995)" fill="#e7e7e7"/>
    <path id="Path_992" data-name="Path 992" d="M74.026,68.253c-.705-3.118,1.47-6.627,4.911-6.474-3.3,2.557-3.611,8.581.858,10.06-2.549,1.351-5.659-.824-5.769-3.586" transform="translate(-11.11 -9.288)" fill="#e7e7e7"/>
    <path id="Path_993" data-name="Path 993" d="M31.085,81.544C64.79,80.686,98.5,79.921,132.2,78.978c1.538.076,3.382-.51,4.614.773-32.924,2.133-65.89,3.738-98.831,5.6-3.169.076-6.585.493-9.508-.994-1.113-1.691,1.139-3.008,2.608-2.812" transform="translate(-4.236 -11.864)" fill="#e7e7e7"/>
    <path id="Path_994" data-name="Path 994" d="M50.222,88.619c13.713-.484,27.41-1.665,41.123-1.869a11.412,11.412,0,0,1-4.435,1.19c-12.5,1.368-24.988,2.8-37.5,3.934a18.284,18.284,0,0,1-6.627-.3c.025-.391.085-1.164.11-1.555,2.175-1.385,4.86-1.274,7.332-1.4" transform="translate(-6.432 -13.043)" fill="#e7e7e7"/>
  </g>
</svg>
