<svg xmlns="http://www.w3.org/2000/svg" xmlns:xlink="http://www.w3.org/1999/xlink" width="62.965" height="70.031" viewBox="0 0 62.965 70.031">
  <defs>
    <clipPath id="clip-path">
      <rect id="Rectangle_155" data-name="Rectangle 155" width="62.965" height="70.031" fill="#e7e7e7"/>
    </clipPath>
  </defs>
  <g id="Group_224" data-name="Group 224" clip-path="url(#clip-path)">
    <path id="Path_997" data-name="Path 997" d="M27.2,1.838A1.692,1.692,0,0,1,28.455.056a1.684,1.684,0,0,1,1.7.705,3.742,3.742,0,0,1,.206,1.206c.006,2.341,0,4.684,0,7.027a2.024,2.024,0,0,1-1.04,1.636,1.677,1.677,0,0,1-2.1-1.48c-.041-2.436-.016-4.875-.016-7.311" transform="translate(-21.897 0)" fill="#e7e7e7"/>
    <path id="Path_998" data-name="Path 998" d="M74.184.232a1.487,1.487,0,0,1,1.833.512,2.515,2.515,0,0,1,.353,1.7c-.014,2.209.01,4.417-.012,6.626a1.607,1.607,0,0,1-1.48,1.653A1.643,1.643,0,0,1,73.2,9.07c0-2.4,0-4.8,0-7.2a1.709,1.709,0,0,1,.98-1.634" transform="translate(-58.946 -0.079)" fill="#e7e7e7"/>
    <path id="Path_999" data-name="Path 999" d="M120.152.2a1.588,1.588,0,0,1,2.172,1.5c.025,2.44.008,4.881,0,7.321a1.581,1.581,0,1,1-3.155.023c.012-2.462-.018-4.925.019-7.387A1.651,1.651,0,0,1,120.152.2" transform="translate(-95.963 -0.049)" fill="#e7e7e7"/>
    <path id="Path_1000" data-name="Path 1000" d="M165.166,1.847A1.542,1.542,0,0,1,166.839.261c.528-.051.892.38,1.268.674a4.287,4.287,0,0,1,.2,1.42c-.014,2.316.014,4.635-.012,6.951a2,2,0,0,1-1.038,1.529,1.706,1.706,0,0,1-2.092-1.48c-.041-2.5-.023-5.005,0-7.508" transform="translate(-132.983 -0.198)" fill="#e7e7e7"/>
    <path id="Path_1001" data-name="Path 1001" d="M211.19,1.823a1.64,1.64,0,0,1,1.1-1.663,1.562,1.562,0,0,1,2.029,1.488c.029,2.462.01,4.925.006,7.387a1.986,1.986,0,0,1-1.03,1.65A1.692,1.692,0,0,1,211.2,9.223c-.037-2.468-.01-4.935-.012-7.4" transform="translate(-170.054 -0.049)" fill="#e7e7e7"/>
    <path id="Path_1002" data-name="Path 1002" d="M2.256,29.327a6,6,0,0,1,2.421-.4,22.3,22.3,0,0,1-.164,3.952,2.47,2.47,0,0,0,2.462,2.748,2.473,2.473,0,0,0,2.306-1.833c.312-.769-.2-1.521-.195-2.294-.014-.835.008-1.671-.021-2.506,1.519-.037,3.04-.053,4.559-.014,0,.976.06,1.953-.018,2.927a3.746,3.746,0,0,0,.027,2.275A2.55,2.55,0,0,0,15.61,35.61a2.437,2.437,0,0,0,2.569-1.687c.3-.732-.051-1.49-.127-2.226-.041-.894.006-1.79-.023-2.686,1.521-.093,3.05-.058,4.573-.021-.025.9.016,1.8-.018,2.705-.07.767-.43,1.576-.072,2.327a2.447,2.447,0,0,0,4.733-.75c0-.6-.259-1.172-.247-1.774-.012-.835.014-1.669,0-2.5q2.279-.085,4.559,0a15.6,15.6,0,0,1-.2,3.667,2.41,2.41,0,0,0,2.7,2.9,2.348,2.348,0,0,0,2.047-1.8,8.912,8.912,0,0,0-.134-2.259c-.008-.855.012-1.708-.006-2.563,1.519.053,3.038-.025,4.557.051-.021.83,0,1.661-.012,2.493,0,.732-.446,1.422-.253,2.162a2.475,2.475,0,0,0,2.793,1.924,2.4,2.4,0,0,0,2.027-2.7,28.62,28.62,0,0,1-.16-3.9,4.784,4.784,0,0,1,2.91.612,3.865,3.865,0,0,1,1.768,3.258q0,11.215-.006,22.428a14.6,14.6,0,0,0-2.534-1.6V40.364q-22.243.023-44.486,0c-.027,10.939,0,21.881-.016,32.82a2.936,2.936,0,0,0,3.073,2.777c5.667.008,11.337,0,17,0A26.856,26.856,0,0,0,23.94,78.58c-6.7-.029-13.4.008-20.093-.019a3.9,3.9,0,0,1-3.6-2.479A6.348,6.348,0,0,1,0,73.758q0-20.452,0-40.9a3.847,3.847,0,0,1,2.249-3.527" transform="translate(0 -23.293)" fill="#e7e7e7"/>
    <path id="Path_1003" data-name="Path 1003" d="M83.281,119.876c1.893.029,3.786.025,5.677,0,.049,1.907.025,3.813.018,5.72-1.9.018-3.8,0-5.7.012.014-1.912,0-3.825.008-5.736" transform="translate(-67.055 -96.53)" fill="#e7e7e7"/>
    <path id="Path_1004" data-name="Path 1004" d="M132.1,125.639c-.055-1.914-.019-3.829-.023-5.743,1.895.027,3.79.014,5.687.01.01,1.9-.008,3.8.008,5.706-1.891.033-3.78-.01-5.671.027" transform="translate(-106.344 -96.546)" fill="#e7e7e7"/>
    <path id="Path_1005" data-name="Path 1005" d="M179.976,125.388c0-1.835-.029-3.669.012-5.5,1.885.033,3.77.006,5.656.016,0,1.72.01,3.437,0,5.155a17.072,17.072,0,0,0-5.667.331" transform="translate(-144.918 -96.538)" fill="#e7e7e7"/>
    <path id="Path_1006" data-name="Path 1006" d="M123.09,160.735a15.792,15.792,0,0,1,21.664-1.844,15.716,15.716,0,0,1,3.95,19.943c.454.411.886.843,1.32,1.276a4.715,4.715,0,0,1-.752,1.042c.874.861,1.911,1.523,2.849,2.306,2.244,1.8,4.555,3.525,6.762,5.373a21.562,21.562,0,0,1-6.38,6.359c-1.211-1.463-2.372-2.968-3.541-4.466-1.3-1.72-2.711-3.346-3.971-5.093-.06.016-.183.051-.245.068-.3.177-.555.52-.911.553-.512-.333-.89-.837-1.373-1.211a15.684,15.684,0,0,1-11.605,1.414,15.782,15.782,0,0,1-7.767-25.719M131,158.756h0a13.024,13.024,0,0,0-9.085,11.808,12.866,12.866,0,0,0,3.751,9.771,12.546,12.546,0,0,0,5.85,3.426,13,13,0,0,0,7.455-24.907,13.36,13.36,0,0,0-7.971-.1" transform="translate(-95.92 -125.158)" fill="#e7e7e7"/>
    <path id="Path_1007" data-name="Path 1007" d="M34.473,166.538q2.848-.009,5.695,0c.076,1.895-.014,3.79.037,5.683-1.9,0-3.805-.023-5.708.016-.043-1.9,0-3.8-.023-5.7" transform="translate(-27.759 -134.1)" fill="#e7e7e7"/>
    <path id="Path_1008" data-name="Path 1008" d="M83.273,166.542q2.854,0,5.706,0c.014,1.9-.008,3.8.01,5.693-1.9-.016-3.809-.012-5.716,0q.012-2.845,0-5.691" transform="translate(-67.055 -134.107)" fill="#e7e7e7"/>
    <path id="Path_1009" data-name="Path 1009" d="M162.2,213.455c-.037-4.939-.021-9.88-.01-14.819,4.923.027,9.847.008,14.77.008.016.728.019,1.457,0,2.185a5.592,5.592,0,0,0-1.8-1.27c-1.986,2.458-3.936,4.951-6.03,7.319-1.256-.933-2.24-2.181-3.529-3.065-.689.678-1.32,1.408-1.973,2.121-.01.066-.029.195-.039.261q.523.552,1.1,1.061c1.558,1.429,3.13,2.845,4.655,4.312a3.165,3.165,0,0,0,.96-.929c2.216-2.684,4.38-5.416,6.653-8.049.045,3.617.01,7.233.019,10.852-4.925.006-9.851-.019-14.774.014" transform="translate(-130.59 -159.951)" fill="#e7e7e7"/>
    <path id="Path_1010" data-name="Path 1010" d="M34.473,214.509c1.92,0,3.842-.033,5.763.018-.144,1.889-.031,3.784-.033,5.675-1.9-.008-3.807-.031-5.712.014-.027-1.9.006-3.806-.018-5.706" transform="translate(-27.759 -172.724)" fill="#e7e7e7"/>
    <path id="Path_1011" data-name="Path 1011" d="M83.245,214.512c1.879,0,3.759-.039,5.636.012a18.767,18.767,0,0,0-.444,5.661c-1.731.016-3.463,0-5.194.008.019-1.893.01-3.788,0-5.681" transform="translate(-67.031 -172.723)" fill="#e7e7e7"/>
  </g>
</svg>
