<svg xmlns="http://www.w3.org/2000/svg" width="50" height="50" viewBox="0 0 50 50">
  <g id="icon" transform="translate(12 20)">
    <circle id="Ellipse_16" data-name="Ellipse 16" cx="25" cy="25" r="25" transform="translate(-12 -20)" fill="#084f24" opacity="0.33"/>
    <circle id="Ellipse_15" data-name="Ellipse 15" cx="21" cy="21" r="21" transform="translate(-8 -16)" fill="#084f24" opacity="0.33"/>
    <circle id="Ellipse_14" data-name="Ellipse 14" cx="17" cy="17" r="17" transform="translate(-4 -12)" fill="#084f24"/>
    <path id="pic" d="M14.311,1.264A1.69,1.69,0,0,1,14.824,2.5V13.82a1.75,1.75,0,0,1-1.753,1.753H1.753a1.69,1.69,0,0,1-1.241-.512A1.69,1.69,0,0,1,0,13.82V2.5A1.69,1.69,0,0,1,.512,1.264,1.692,1.692,0,0,1,1.753.75H13.07a1.7,1.7,0,0,1,1.241.514M.926,10.082,3.706,7.3l4.666,4.434,2.712-2.581L13.9,11.968V2.5a.8.8,0,0,0-.248-.58.793.793,0,0,0-.579-.247H1.753a.793.793,0,0,0-.579.247.8.8,0,0,0-.248.58ZM9.579,6.541a1.747,1.747,0,0,0,.512-1.258A1.75,1.75,0,0,0,8.338,3.53a1.747,1.747,0,0,0-1.258.512,1.668,1.668,0,0,0-.529,1.241A1.808,1.808,0,0,0,8.338,7.071a1.663,1.663,0,0,0,1.241-.529" transform="translate(6 -2.75)" fill="#fff"/>
  </g>
</svg>
