<svg xmlns="http://www.w3.org/2000/svg" width="15.015" height="15.625" viewBox="0 0 15.015 15.625">
  <path id="Path_1056" data-name="Path 1056" d="M49.234,13a1.41,1.41,0,0,1-.6,1.1,5.317,5.317,0,0,1-1.724.854,17.208,17.208,0,0,1-5.173.671,17.518,17.518,0,0,1-5.2-.671q-2.32-.733-2.32-1.923,0-.824,1.1-1.434a8.071,8.071,0,0,1,2.075-.733l1.221,1.221a6.87,6.87,0,0,0-1.861.519q-.519.244-.58.427.03.092.305.275a4.107,4.107,0,0,0,1.159.427,15.087,15.087,0,0,0,4.1.488,14.75,14.75,0,0,0,4.074-.488,3.516,3.516,0,0,0,1.159-.458q.305-.152.305-.275-.061-.183-.58-.4a6.416,6.416,0,0,0-1.831-.519l1.221-1.221a7.218,7.218,0,0,1,2.075.733,1.724,1.724,0,0,1,1.068,1.434ZM41.727,0a4.74,4.74,0,0,0-4.151,2.4,4.726,4.726,0,0,0-.641,2.4,6.584,6.584,0,0,0,.733,2.594,26.729,26.729,0,0,0,1.648,2.838q.763,1.1,1.678,2.289l.733.916.763-.916q.885-1.159,1.648-2.289a23.234,23.234,0,0,0,1.648-2.838,6.411,6.411,0,0,0,.733-2.594,4.818,4.818,0,0,0-2.38-4.15A4.7,4.7,0,0,0,41.727,0m0,6.927A2.137,2.137,0,0,1,39.59,4.791a2.136,2.136,0,0,1,4.273,0,2.137,2.137,0,0,1-2.136,2.136" transform="translate(-34.219 0)" fill="#adadad"/>
</svg>
