<svg xmlns="http://www.w3.org/2000/svg" xmlns:xlink="http://www.w3.org/1999/xlink" width="56" height="56" viewBox="0 0 56 56">
  <defs>
    <style>
      .cls-1 {
        fill: #084f24;
      }

      .cls-2 {
        fill: #fff;
      }

      .cls-3 {
        clip-path: url(#clip-path);
      }

      .cls-4 {
        filter: url(#Ellipse_14);
      }
    </style>
    <filter id="Ellipse_14" x="0" y="0" width="56" height="56" filterUnits="userSpaceOnUse">
      <feOffset dy="1" input="SourceAlpha"/>
      <feGaussianBlur stdDeviation="1" result="blur"/>
      <feFlood flood-opacity="0.09"/>
      <feComposite operator="in" in2="blur"/>
      <feComposite in="SourceGraphic"/>
    </filter>
    <clipPath id="clip-path">
      <rect id="Rectangle_276" data-name="Rectangle 276" class="cls-1" width="27.925" height="31.058"/>
    </clipPath>
  </defs>
  <g id="icon" transform="translate(15 23)">
    <g class="cls-4" transform="matrix(1, 0, 0, 1, -15, -23)">
      <circle id="Ellipse_14-2" data-name="Ellipse 14" class="cls-2" cx="25" cy="25" r="25" transform="translate(3 2)"/>
    </g>
    <g id="Group_242" data-name="Group 242" class="cls-3" transform="translate(2 -9.926)">
      <path id="Path_1128" data-name="Path 1128" class="cls-1" d="M27.2.815a.751.751,0,0,1,.556-.79.747.747,0,0,1,.753.313A1.66,1.66,0,0,1,28.6.872c0,1.038,0,2.077,0,3.116a.9.9,0,0,1-.461.726.744.744,0,0,1-.932-.656C27.185,2.977,27.2,1.9,27.2.815" transform="translate(-24.844 0)"/>
      <path id="Path_1129" data-name="Path 1129" class="cls-1" d="M73.638.157a.66.66,0,0,1,.813.227,1.115,1.115,0,0,1,.156.754c-.006.979,0,1.959-.005,2.938a.713.713,0,0,1-.656.733.729.729,0,0,1-.743-.733c0-1.065,0-2.13,0-3.195a.758.758,0,0,1,.434-.725" transform="translate(-66.88 -0.089)"/>
      <path id="Path_1130" data-name="Path 1130" class="cls-1" d="M119.607.121a.7.7,0,0,1,.963.664c.011,1.082,0,2.164,0,3.247a.7.7,0,1,1-1.4.01c.005-1.092-.008-2.184.009-3.276a.732.732,0,0,1,.426-.645" transform="translate(-108.88 -0.056)"/>
      <path id="Path_1131" data-name="Path 1131" class="cls-1" d="M165.155.956a.684.684,0,0,1,.742-.7c.234-.022.4.168.562.3a1.9,1.9,0,0,1,.091.63c-.006,1.027.006,2.056-.005,3.083a.887.887,0,0,1-.46.678.757.757,0,0,1-.928-.656c-.018-1.109-.01-2.22,0-3.33" transform="translate(-150.881 -0.224)"/>
      <path id="Path_1132" data-name="Path 1132" class="cls-1" d="M211.186.842A.727.727,0,0,1,211.674.1a.693.693,0,0,1,.9.66c.013,1.092,0,2.184,0,3.276a.881.881,0,0,1-.457.732.75.75,0,0,1-.928-.648c-.016-1.094,0-2.189-.005-3.282" transform="translate(-192.942 -0.056)"/>
      <path id="Path_1133" data-name="Path 1133" class="cls-1" d="M1,29.1a2.661,2.661,0,0,1,1.074-.178A9.888,9.888,0,0,1,2,30.679,1.1,1.1,0,0,0,3.093,31.9a1.1,1.1,0,0,0,1.023-.813c.138-.341-.091-.675-.086-1.017-.006-.371,0-.741-.01-1.112.674-.016,1.348-.023,2.022-.006,0,.433.027.866-.008,1.3a1.661,1.661,0,0,0,.012,1.009,1.131,1.131,0,0,0,.877.634,1.081,1.081,0,0,0,1.139-.748c.135-.325-.022-.661-.056-.987-.018-.4,0-.794-.01-1.191.675-.041,1.353-.026,2.028-.01-.011.4.007.8-.008,1.2-.031.34-.191.7-.032,1.032a1.085,1.085,0,0,0,2.1-.333c0-.267-.115-.52-.11-.787-.005-.371.006-.74,0-1.11q1.011-.038,2.022,0a6.917,6.917,0,0,1-.09,1.626,1.069,1.069,0,0,0,1.2,1.284,1.041,1.041,0,0,0,.908-.8,3.952,3.952,0,0,0-.06-1c0-.379.005-.757,0-1.137.674.023,1.347-.011,2.021.022-.01.368,0,.737-.005,1.106,0,.325-.2.631-.112.959a1.1,1.1,0,0,0,1.239.853,1.064,1.064,0,0,0,.9-1.2,12.693,12.693,0,0,1-.071-1.729,2.122,2.122,0,0,1,1.29.271,1.714,1.714,0,0,1,.784,1.445q0,4.974,0,9.947a6.473,6.473,0,0,0-1.124-.708V34Q11,34.009,1.136,34c-.012,4.852,0,9.7-.007,14.556a1.3,1.3,0,0,0,1.363,1.232c2.513,0,5.028,0,7.541,0a11.91,11.91,0,0,0,.584,1.158c-2.97-.013-5.941,0-8.911-.009a1.731,1.731,0,0,1-1.6-1.1A2.815,2.815,0,0,1,0,48.809q0-9.07,0-18.141A1.706,1.706,0,0,1,1,29.1" transform="translate(0 -26.428)"/>
      <path id="Path_1134" data-name="Path 1134" class="cls-1" d="M83.276,119.876c.84.013,1.679.011,2.518,0,.022.846.011,1.691.008,2.537-.843.008-1.686,0-2.529.005.006-.848,0-1.7,0-2.544" transform="translate(-76.08 -109.522)"/>
      <path id="Path_1135" data-name="Path 1135" class="cls-1" d="M132.078,122.443c-.024-.849-.009-1.7-.01-2.547.84.012,1.681.006,2.522,0,0,.844,0,1.687,0,2.531-.839.015-1.676,0-2.515.012" transform="translate(-120.658 -109.54)"/>
      <path id="Path_1136" data-name="Path 1136" class="cls-1" d="M179.971,122.326c0-.814-.013-1.627.005-2.44.836.015,1.672,0,2.508.007,0,.763,0,1.524,0,2.286a7.571,7.571,0,0,0-2.513.147" transform="translate(-164.423 -109.531)"/>
      <path id="Path_1137" data-name="Path 1137" class="cls-1" d="M120.88,157.781a7,7,0,0,1,9.608-.818,6.97,6.97,0,0,1,1.752,8.845c.2.182.393.374.586.566a2.091,2.091,0,0,1-.333.462c.388.382.847.675,1.264,1.023,1,.8,2.02,1.563,3,2.383a9.563,9.563,0,0,1-2.83,2.82c-.537-.649-1.052-1.316-1.57-1.981-.575-.763-1.2-1.484-1.761-2.259l-.109.03c-.133.079-.246.231-.4.245-.227-.148-.395-.371-.609-.537a6.956,6.956,0,0,1-5.147.627,7,7,0,0,1-3.445-11.406m3.508-.878h0a5.776,5.776,0,0,0-4.029,5.237,5.706,5.706,0,0,0,1.664,4.333,5.564,5.564,0,0,0,2.595,1.519,5.767,5.767,0,0,0,3.306-11.046,5.925,5.925,0,0,0-3.535-.043" transform="translate(-108.83 -142.003)"/>
      <path id="Path_1138" data-name="Path 1138" class="cls-1" d="M34.473,166.535q1.263,0,2.526,0c.034.84-.006,1.681.016,2.52-.844,0-1.688-.01-2.532.007-.019-.843,0-1.685-.01-2.527" transform="translate(-31.495 -152.15)"/>
      <path id="Path_1139" data-name="Path 1139" class="cls-1" d="M83.273,166.542H85.8c.006.841,0,1.683,0,2.525-.845-.007-1.689-.005-2.535,0q.005-1.262,0-2.524" transform="translate(-76.08 -152.157)"/>
      <path id="Path_1140" data-name="Path 1140" class="cls-1" d="M162.184,205.208c-.016-2.19-.009-4.382,0-6.572,2.184.012,4.367,0,6.551,0,.007.323.009.646,0,.969a2.48,2.48,0,0,0-.8-.563c-.881,1.09-1.746,2.2-2.674,3.246-.557-.414-.993-.967-1.565-1.359-.306.3-.586.624-.875.941l-.017.116q.232.245.486.471c.691.634,1.388,1.262,2.064,1.912a1.4,1.4,0,0,0,.426-.412c.983-1.19,1.943-2.4,2.95-3.57.02,1.6,0,3.208.009,4.813-2.184,0-4.369-.009-6.552.006" transform="translate(-148.167 -181.479)"/>
      <path id="Path_1141" data-name="Path 1141" class="cls-1" d="M34.473,214.5c.852,0,1.7-.015,2.556.008-.064.838-.014,1.678-.015,2.517-.845,0-1.689-.014-2.533.006-.012-.844,0-1.688-.008-2.531" transform="translate(-31.495 -195.971)"/>
      <path id="Path_1142" data-name="Path 1142" class="cls-1" d="M83.244,214.5c.833,0,1.667-.017,2.5.005a8.323,8.323,0,0,0-.2,2.511c-.768.007-1.536,0-2.3,0,.009-.84,0-1.68,0-2.52" transform="translate(-76.053 -195.97)"/>
    </g>
  </g>
</svg>
