<svg xmlns="http://www.w3.org/2000/svg" width="47.377" height="49.301" viewBox="0 0 47.377 49.301">
  <path id="Path_1030" data-name="Path 1030" d="M81.6,41.02a4.45,4.45,0,0,1-1.879,3.467,16.775,16.775,0,0,1-5.441,2.7A54.3,54.3,0,0,1,57.955,49.3a55.274,55.274,0,0,1-16.417-2.118q-7.319-2.312-7.319-6.066,0-2.6,3.467-4.526a25.467,25.467,0,0,1,6.548-2.311l3.851,3.853a21.675,21.675,0,0,0-5.873,1.636q-1.638.77-1.829,1.348.1.289.963.866A12.96,12.96,0,0,0,45,43.331a47.6,47.6,0,0,0,12.952,1.54,46.541,46.541,0,0,0,12.855-1.54,11.1,11.1,0,0,0,3.658-1.445q.963-.481.963-.866-.192-.578-1.829-1.252a20.242,20.242,0,0,0-5.777-1.636l3.851-3.853a22.773,22.773,0,0,1,6.548,2.311q3.369,1.925,3.37,4.526ZM57.907,0a14.956,14.956,0,0,0-13.1,7.559,14.912,14.912,0,0,0-2.022,7.558q0,3.178,2.311,8.186a84.334,84.334,0,0,0,5.2,8.954q2.408,3.467,5.3,7.222l2.311,2.89,2.408-2.89q2.793-3.658,5.2-7.222a73.312,73.312,0,0,0,5.2-8.954,20.228,20.228,0,0,0,2.311-8.186A15.2,15.2,0,0,0,65.515,2.022,14.823,14.823,0,0,0,57.907,0m0,21.858a6.741,6.741,0,0,1-6.741-6.741,6.741,6.741,0,0,1,13.482,0,6.741,6.741,0,0,1-6.741,6.741" transform="translate(-34.219)" fill="#e7e7e7"/>
</svg>
