<svg xmlns="http://www.w3.org/2000/svg" width="59.852" height="55.5" viewBox="0 0 59.852 55.5">
  <path id="Path_1020" data-name="Path 1020" d="M24.9,51.29l1.364-.74a8.733,8.733,0,0,0,4.087,1.116L20.067,56.249l.492-11.156a12.883,12.883,0,0,0,2.358,3.474q-.127,1.856-.249,3.717.619-.246,2.231-.994M53.646,1.23A3.6,3.6,0,0,0,51.294.791,2.543,2.543,0,0,0,49.432,1.97L21.3,42.989a.153.153,0,0,0,0,.249,5.982,5.982,0,0,0,1.861,2.971L53.895,1.351Zm1.116.619L23.906,46.954c.412.328.867.661,1.364.989L27,49.058,57.987,3.953ZM60.71,6.988a3.378,3.378,0,0,0-1.116-1.919l-.74-.5L28,49.434a7.869,7.869,0,0,0,3.22.867h.248a1.084,1.084,0,0,0,.867-.5L60.34,9.155a2.845,2.845,0,0,0,.37-2.168M79.919,48.44H39.646l-5.33,7.809h45.6Zm0-20.694H53.895l-5.33,7.809H79.919Zm0-19.579H67.4l-5.451,7.809H79.919Z" transform="translate(-20.067 -0.749)" fill="#e7e7e7"/>
</svg>
