<svg
    xmlns="http://www.w3.org/2000/svg"
    width="46"
    height="46"
    viewBox="0 0 46 46"
    >
    <circle
        id="Ellipse_110"
        data-name="Ellipse 110"
        cx="23"
        cy="23"
        r="23"
        fill="#084f24"
    />
    <path
        id="phone"
        d="M4.213.233A4.449,4.449,0,0,1,7.769.557,2.675,2.675,0,0,1,9.06,2.28a4.488,4.488,0,0,1-.053,2.478A4.705,4.705,0,0,1,7.714,6.911a3.4,3.4,0,0,1-2.425.97A6.782,6.782,0,0,0,5.4,12.163a9.4,9.4,0,0,0,2.425,4.068,2.836,2.836,0,0,1,1.455-.377,5.208,5.208,0,0,1,2.907.97,5.875,5.875,0,0,1,2.1,2.289,2.29,2.29,0,0,1-.053,2.4,4.228,4.228,0,0,1-1.94,1.616A4.309,4.309,0,0,1,8.467,22.8a15.58,15.58,0,0,1-5.493-4.955,15.724,15.724,0,0,1-2.91-7.488A13.417,13.417,0,0,1,2.057,1.9,4.033,4.033,0,0,1,4.213.233M20.425,1.74a11.139,11.139,0,0,1,5.442,9.589h-1.4a9.8,9.8,0,0,0-1.239-4.714A9.446,9.446,0,0,0,19.78,2.979a9.426,9.426,0,0,0-5.116-1.453V.18A10.929,10.929,0,0,1,20.425,1.74M18.217,5.268a6.8,6.8,0,0,1,2.533,2.56,6.971,6.971,0,0,1,.915,3.5H20.317a5.233,5.233,0,0,0-.779-2.746,6.033,6.033,0,0,0-2.075-2.073,5.308,5.308,0,0,0-2.8-.781v-1.4a6.929,6.929,0,0,1,3.553.942M16.629,9.336a2.7,2.7,0,0,1,.889,1.993H16.171a2.132,2.132,0,0,0-.54-.97,1.8,1.8,0,0,0-.968-.485v-1.4a2.768,2.768,0,0,1,1.965.862"
        transform="translate(11.656 10.982)"
        fill="#fff"
    />
</svg>