<svg xmlns="http://www.w3.org/2000/svg" width="13" height="13" viewBox="0 0 13 13">
<path id="Path_1025" data-name="Path 1025"
    d="M23.239,1.073a.25.25,0,0,1,.261.261v11.4a.25.25,0,0,1-.261.261H10.761a.25.25,0,0,1-.261-.261V1.335a.256.256,0,0,1,.073-.188.252.252,0,0,1,.188-.073h1.8V.87a.814.814,0,0,1,.276-.609A.9.9,0,0,1,13.474,0a.785.785,0,0,1,.61.276A.913.913,0,0,1,14.331.9v.173h5.252V.9a.867.867,0,0,1,.261-.639A.847.847,0,0,1,20.468,0a.829.829,0,0,1,.624.276A.885.885,0,0,1,21.353.9v.173Zm-11.4,2.641H22.165V2.38h-.812v.058a.84.84,0,0,1-.261.609.876.876,0,0,1-1.248,0,.835.835,0,0,1-.261-.609V2.38H14.331v.058a.84.84,0,0,1-.261.609.876.876,0,0,1-1.248,0,.835.835,0,0,1-.261-.609V2.38h-.754ZM19.786,6.5a.572.572,0,0,0,.116-.29.5.5,0,0,0-.16-.363.568.568,0,0,0-.421-.16.525.525,0,0,0-.436.232L15.868,9.547,15,8.618a.59.59,0,0,0-.348-.276.548.548,0,0,0-.7.378.539.539,0,0,0,.058.421L15.23,10.65a.591.591,0,0,0,.334.275.5.5,0,0,0,.421-.043l.115-.116,3.511-4.034a1.546,1.546,0,0,0,.175-.232"
    transform="translate(-10.5)" fill="#707070" />
</svg>